<svg xmlns="http://www.w3.org/2000/svg" xmlns:xlink="http://www.w3.org/1999/xlink" version="1.1" viewBox="0 0 100 100"><g><path fill="none" d="M24.624,94.496h50.751V26.014H24.624V94.496z M60.428,39.156H64.6v42.199h-4.172V39.156z M47.913,39.156h4.171   v42.199h-4.171V39.156z M35.399,39.156h4.171v42.199h-4.171V39.156z"/><polygon fill="none" points="31.922,13.492 15.76,13.492 15.76,21.843 20.453,21.843 79.547,21.843 84.24,21.843 84.24,13.492    68.076,13.492  "/><rect x="36.093" y="5.503" fill="none" width="27.811" height="3.817"/><path d="M68.076,9.32V1.332H31.922V9.32H11.588v16.694h8.864v72.654h59.094V26.014h8.865V9.32H68.076z M36.093,5.503h27.811V9.32   H36.093V5.503z M75.375,94.496H24.624V26.014h50.751V94.496z M84.24,21.843h-4.693H20.453H15.76v-8.351h16.162h36.154H84.24V21.843   z"/><rect x="35.399" y="39.156" width="4.171" height="42.199"/><rect x="47.913" y="39.156" width="4.171" height="42.199"/><rect x="60.428" y="39.156" width="4.172" height="42.199"/></g></svg>
